<svg xmlns="http://www.w3.org/2000/svg" width="20" height="20" viewBox="0 0 512 512" fill="#c8c8c8"><path d="M476.7 37.3l-2-2c-47-47-124-47-171.2 0l-109 109c-47 47-47 124.2 0 171.2l2 2c4 4 8 7.5 12.3 10.8l40-40c-4.7-2.7-9-6-13-10l-2-2c-25.7-25.6-25.7-67 0-92.7l109-109c25.5-25.6 67-25.6 92.6 0l2 2c25.6 25.5 25.6 67 0 92.6l-49.3 49.4c8.7 21 12.8 43.7 12.4 66.2l76.3-76.3c47-47 47-124 0-171.2zM315.5 194.5c-4-4-8-7.5-12.3-10.8l-40 40c4.7 2.7 9 6 13 10l2 2c25.7 25.6 25.7 67.2 0 92.7l-109 109c-25.5 25.6-67 25.6-92.7 0l-2-2C49 410 49 368.5 74.5 343l49.4-49.4c-8.7-21-12.8-43.7-12.4-66.2l-76.3 76.3c-47 47-47 124 0 171.2l2 2c47 47 124 47 171.2 0l109-109c47-47 47-124.2 0-171.2l-2-2z"/></svg>
